<?xml version="1.0" encoding="UTF-8"?>
<svg version="1.1" xmlns="http://www.w3.org/2000/svg" width="256" height="256">
<path d="M0 0 C84.48 0 168.96 0 256 0 C256 84.48 256 168.96 256 256 C171.52 256 87.04 256 0 256 C0 171.52 0 87.04 0 0 Z " fill="#04AC38" transform="translate(0,0)"/>
<path d="M0 0 C10.621875 -0.04125 21.24375 -0.0825 32.1875 -0.125 C35.51481201 -0.14320801 38.84212402 -0.16141602 42.27026367 -0.18017578 C44.94449706 -0.18602386 47.61873225 -0.19111867 50.29296875 -0.1953125 C50.96886551 -0.20053925 51.64476227 -0.20576599 52.34114075 -0.21115112 C71.94860442 -0.3549121 92.95910867 2.19011205 107.8125 16.25 C117.46568497 26.55939433 121.59204278 37.78372478 121.4375 51.8125 C121.43065186 52.77373779 121.42380371 53.73497559 121.41674805 54.7253418 C121.10659806 68.52178887 116.49739459 80.86193 107.0625 91.08984375 C91.88835814 105.14316832 72.46420968 107.34039715 52.734375 107.1953125 C51.37646652 107.19236274 50.01855575 107.19032806 48.66064453 107.18920898 C43.69039444 107.17882975 38.7201934 107.15090792 33.75 107.125 C17.04375 107.063125 17.04375 107.063125 0 107 C0 71.69 0 36.38 0 0 Z " fill="#FAFDFB" transform="translate(72,40)"/>
<path d="M0 0 C6.88875 -0.061875 13.7775 -0.12375 20.875 -0.1875 C23.0288623 -0.21481201 25.18272461 -0.24212402 27.40185547 -0.27026367 C29.14029381 -0.27903887 30.87873839 -0.28668035 32.6171875 -0.29296875 C33.4944751 -0.30831665 34.3717627 -0.32366455 35.27563477 -0.33947754 C44.81030535 -0.34344261 53.42011762 2.07327063 61 8 C67.23420543 14.57118951 68.50530014 20.62261872 68.4375 29.375 C68.45748047 30.2825 68.47746094 31.19 68.49804688 32.125 C68.49258956 39.69975517 66.60608145 44.88718049 61.75 50.6875 C52.51605262 58.4524103 43.0817977 61.51427315 31.0546875 61.29296875 C30.25877197 61.28994751 29.46285645 61.28692627 28.64282227 61.28381348 C25.72007954 61.26832782 22.79752425 61.22644708 19.875 61.1875 C13.31625 61.125625 6.7575 61.06375 0 61 C0 40.87 0 20.74 0 0 Z " fill="#04AC38" transform="translate(98,63)"/>
<path d="M0 0 C8.58 0 17.16 0 26 0 C26 15.51 26 31.02 26 47 C17.42 47 8.84 47 0 47 C0 31.49 0 15.98 0 0 Z " fill="#FBFDFB" transform="translate(72,169)"/>
</svg>
