<svg version="1.2" xmlns="http://www.w3.org/2000/svg" viewBox="0 0 1511 1214" width="1511" height="1214">
	<title>https___images</title>
	<style>
		.s0 { fill: #ff6200 } 
	</style>
	<g id="Layer">
		<g id="Layer">
			<g id="Layer">
				<g id="Layer">
					<g id="Layer">
						<path id="Layer" class="s0" d="m719 569.1c4.4-1.2 8.7-2.3 13.1-3.6 96.8-27.3 191-65.1 284.6-104.3 91.6-38.3 182.2-84.4 261.8-149.1 81.7-66.5 147.5-152.6 183.7-259.4 5.1-14.8 15.6-36.2 16.6-52.5-127.2 173.9-631.9 191.9-631.9 191.9l119.1-109.3c-478.8 0.9-812.9 204.1-965.9 312.8 195.8 21 373.2 104 512 228.9 68.3-21.2 138-36.5 206.9-55.4z"/>
						<path id="Layer" class="s0" d="m1510.5 552c0 0-465.7-35.6-949.4 120.2 64.2 67 118.3 143.7 159.7 227.8 254.3-141.6 607-322.4 789.7-348z"/>
						<path id="Layer" class="s0" d="m752.7 972.6c29.5 76 49.3 156.7 57.5 240.9l443.3-455.9z"/>
					</g>
				</g>
			</g>
		</g>
	</g>
</svg>