<svg
    version="1.1"
    id="Layer_1"
    xmlns="http://www.w3.org/2000/svg"
    xmlns:xlink="http://www.w3.org/1999/xlink"
    x="0px"
    y="0px"
    width="100%"
    viewBox="0 0 2000 2000"
    enable-background="new 0 0 2000 2000"
    xml:space="preserve"
>
<path
        fill="#5E17EB"
        opacity="1.000000"
        stroke="none"
        d="
M2001.000000,960.000000
	C2001.000000,990.354248 2001.000000,1020.708496 2000.643799,1051.754272
	C1998.859985,1068.408081 1997.467041,1084.373657 1995.993164,1100.331665
	C1994.930664,1111.835938 1994.244751,1123.403076 1992.529297,1134.812622
	C1989.735474,1153.393921 1986.527588,1171.925537 1982.957886,1190.374268
	C1979.186646,1209.865234 1975.496094,1229.417114 1970.549805,1248.628052
	C1934.252441,1389.602661 1870.510620,1516.856567 1778.889160,1630.061768
	C1706.078125,1720.025269 1620.261719,1795.170288 1521.480225,1855.453125
	C1420.556641,1917.042847 1312.122681,1959.549805 1196.042725,1982.129883
	C1169.451660,1987.302490 1142.533203,1990.827148 1115.722046,1994.817993
	C1103.852417,1996.584595 1091.897705,1997.901611 1079.938110,1998.903809
	C1070.535400,1999.691650 1061.064331,1999.646484 1051.627686,2000.063599
	C1050.074341,2000.132202 1048.541992,2000.675903 1047.000000,2001.000000
	C1014.312439,2001.000000 981.624878,2001.000000 948.239258,2000.639648
	C930.409973,1998.848877 913.236389,1997.796509 896.158447,1995.889038
	C876.524292,1993.695923 856.932983,1991.019653 837.402100,1988.036011
	C822.519836,1985.762573 807.685791,1983.035645 792.959534,1979.902954
	C707.091003,1961.635132 624.924561,1932.754395 546.808411,1892.678711
	C429.675781,1832.586426 328.018158,1752.741943 242.187164,1652.829590
	C165.949249,1564.084473 107.210350,1464.967651 65.498825,1355.682617
	C47.277740,1307.942993 33.453690,1258.901978 22.268751,1209.134033
	C17.524796,1188.025513 14.461582,1166.510742 11.307900,1145.081421
	C8.404186,1125.350952 6.044881,1105.522217 4.128685,1085.670654
	C2.811912,1072.029175 2.682792,1058.273682 1.955896,1044.572754
	C1.891996,1043.368408 1.330419,1042.190308 1.000001,1041.000000
	C1.000000,1011.312439 1.000000,981.624878 1.353528,951.224609
	C2.123091,944.571899 2.459251,938.624939 2.970681,932.693176
	C4.304958,917.217773 5.478199,901.723083 7.163436,886.284912
	C8.842361,870.904480 10.419758,855.465393 13.198027,840.263367
	C17.635590,815.982239 22.367085,791.716858 28.128963,767.722046
	C60.705917,632.058716 119.248398,508.605377 203.528519,397.412354
	C266.723114,314.037964 341.103882,242.193558 426.797974,182.166168
	C543.814819,100.197670 672.503235,45.656532 812.849121,18.814474
	C829.563171,15.617803 846.449524,13.248543 863.318604,10.956560
	C880.300720,8.649211 897.336731,6.664884 914.395508,5.020564
	C925.895386,3.912077 937.483643,3.751764 949.016418,2.940190
	C954.031616,2.587264 959.006714,1.664148 964.000000,1.000001
	C988.354248,1.000000 1012.708496,1.000000 1037.788086,1.339805
	C1047.787964,2.144707 1057.088135,2.321609 1066.331543,3.138960
	C1082.247437,4.546333 1098.147705,6.185644 1114.018066,8.039473
	C1129.092651,9.800339 1144.174927,11.621875 1159.155151,14.031218
	C1177.855225,17.038830 1196.568848,20.142756 1215.077637,24.128735
	C1315.042358,45.656609 1409.323242,82.133545 1497.979492,133.025742
	C1612.524658,198.779144 1710.339233,283.945862 1791.308838,388.223694
	C1869.649780,489.116028 1926.593994,601.057617 1961.991089,723.856262
	C1972.774658,761.265991 1981.619995,799.122803 1987.056152,837.718506
	C1990.052490,858.992676 1993.413208,880.226013 1995.858154,901.563843
	C1997.565186,916.462463 1997.915649,931.513489 1999.050415,946.482849
	C1999.393799,951.011780 2000.333496,955.495544 2001.000000,960.000000
M1660.613892,1454.118042
	C1663.672729,1449.554199 1666.745728,1444.999634 1669.788086,1440.424805
	C1707.652832,1383.487549 1737.223755,1322.483276 1759.203369,1257.775391
	C1773.971436,1214.298462 1784.894409,1169.861328 1791.823608,1124.468262
	C1797.583130,1086.737183 1801.283081,1048.805420 1800.977417,1010.601807
	C1800.818848,990.799561 1800.293457,970.967285 1798.943237,951.216370
	C1797.457642,929.486023 1795.483032,907.745728 1792.566162,886.165955
	C1787.180664,846.323853 1778.173584,807.222046 1766.512817,768.730042
	C1744.726562,696.813293 1713.451050,629.296753 1672.493652,566.314575
	C1650.761597,532.895935 1626.657349,501.273499 1600.244141,471.352509
	C1576.270874,444.195679 1550.680054,418.714539 1523.264648,395.126160
	C1491.910034,368.148529 1458.708618,343.573486 1423.542480,321.720154
	C1375.534546,291.886597 1324.979492,267.249939 1271.784790,248.182587
	C1219.090576,229.294632 1164.996948,216.046280 1109.446777,208.656738
	C1076.064575,204.216080 1042.573730,201.543457 1008.937073,201.238800
	C990.143494,201.068604 971.325867,202.056870 952.539246,202.948059
	C918.402954,204.567413 884.567383,208.983078 851.018372,215.351868
	C767.680969,231.172165 688.897339,259.705139 614.597473,300.652832
	C548.199829,337.245514 488.334900,382.569977 434.762939,436.097229
	C418.294556,452.551849 402.856781,470.104614 387.733643,487.825775
	C350.494476,531.462219 318.840027,578.949646 292.181854,629.736145
	C255.927078,698.804993 230.208588,771.609680 215.435349,848.225159
	C205.923813,897.553040 200.549301,947.303467 201.045074,997.600708
	C201.145157,1007.753662 201.699326,1017.901489 201.858383,1028.054688
	C202.375702,1061.075195 205.893616,1093.812500 210.934723,1126.412842
	C222.365723,1200.335938 244.042130,1271.160522 275.578186,1338.949829
	C311.790588,1416.791138 359.237671,1487.177368 418.384766,1549.343262
	C440.617401,1572.710938 464.378876,1594.797729 488.870453,1615.804688
	C534.835022,1655.229614 585.563477,1687.791748 639.552368,1715.217285
	C695.959900,1743.871582 754.963806,1765.436279 816.561523,1779.951416
	C867.444946,1791.941650 919.000854,1799.069092 971.219543,1800.736206
	C993.505615,1801.447876 1015.854614,1800.654663 1038.163208,1800.086182
	C1070.492432,1799.262207 1102.548706,1795.604126 1134.421387,1790.119019
	C1184.464844,1781.506958 1233.338745,1768.697510 1280.945801,1750.913696
	C1341.199585,1728.405518 1397.825317,1698.933105 1450.987549,1662.860474
	C1505.830200,1625.647583 1555.177246,1582.104126 1599.160278,1532.477905
	C1621.064575,1507.763184 1641.582520,1481.990112 1660.613892,1454.118042
z"
    />

<path
        fill="#8C52FF"
        opacity="1.000000"
        stroke="none"
        d="
M1660.412598,1454.418213
	C1641.582520,1481.990112 1621.064575,1507.763184 1599.160278,1532.477905
	C1555.177246,1582.104126 1505.830200,1625.647583 1450.987549,1662.860474
	C1397.825317,1698.933105 1341.199585,1728.405518 1280.945801,1750.913696
	C1233.338745,1768.697510 1184.464844,1781.506958 1134.421387,1790.119019
	C1102.548706,1795.604126 1070.492432,1799.262207 1038.163208,1800.086182
	C1015.854614,1800.654663 993.505615,1801.447876 971.219543,1800.736206
	C919.000854,1799.069092 867.444946,1791.941650 816.561523,1779.951416
	C754.963806,1765.436279 695.959900,1743.871582 639.552368,1715.217285
	C585.563477,1687.791748 534.835022,1655.229614 488.870453,1615.804688
	C464.378876,1594.797729 440.617401,1572.710938 418.384766,1549.343262
	C359.237671,1487.177368 311.790588,1416.791138 275.578186,1338.949829
	C244.042130,1271.160522 222.365723,1200.335938 210.934723,1126.412842
	C205.893616,1093.812500 202.375702,1061.075195 201.858383,1028.054688
	C201.699326,1017.901489 201.145157,1007.753662 201.045074,997.600708
	C200.549301,947.303467 205.923813,897.553040 215.435349,848.225159
	C230.208588,771.609680 255.927078,698.804993 292.181854,629.736145
	C318.840027,578.949646 350.494476,531.462219 387.733643,487.825775
	C402.856781,470.104614 418.294556,452.551849 434.762939,436.097229
	C488.334900,382.569977 548.199829,337.245514 614.597473,300.652832
	C688.897339,259.705139 767.680969,231.172165 851.018372,215.351868
	C884.567383,208.983078 918.402954,204.567413 952.539246,202.948059
	C971.325867,202.056870 990.143494,201.068604 1008.937073,201.238800
	C1042.573730,201.543457 1076.064575,204.216080 1109.446777,208.656738
	C1164.996948,216.046280 1219.090576,229.294632 1271.784790,248.182587
	C1324.979492,267.249939 1375.534546,291.886597 1423.542480,321.720154
	C1458.708618,343.573486 1491.910034,368.148529 1523.264648,395.126160
	C1550.680054,418.714539 1576.270874,444.195679 1600.244141,471.352509
	C1626.657349,501.273499 1650.761597,532.895935 1672.493652,566.314575
	C1713.451050,629.296753 1744.726562,696.813293 1766.512817,768.730042
	C1778.173584,807.222046 1787.180664,846.323853 1792.566162,886.165955
	C1795.483032,907.745728 1797.457642,929.486023 1798.943237,951.216370
	C1800.293457,970.967285 1800.818848,990.799561 1800.977417,1010.601807
	C1801.283081,1048.805420 1797.583130,1086.737183 1791.823608,1124.468262
	C1784.894409,1169.861328 1773.971436,1214.298462 1759.203369,1257.775391
	C1737.223755,1322.483276 1707.652832,1383.487549 1669.788086,1440.424805
	C1666.745728,1444.999634 1663.672729,1449.554199 1660.412598,1454.418213
M1570.555176,810.986633
	C1560.576782,786.471130 1551.737915,761.413513 1540.388062,737.550354
	C1514.955078,684.077759 1481.230713,636.005615 1440.939209,592.646545
	C1410.445801,559.831787 1376.730835,530.654785 1339.653198,505.434265
	C1287.442627,469.920288 1231.091431,443.176208 1170.524292,425.258057
	C1121.551025,410.769867 1071.511475,402.540436 1020.532043,401.371002
	C994.791565,400.780487 968.948303,402.363007 943.222595,404.048615
	C914.441833,405.934387 886.120728,411.300659 858.108704,418.189697
	C794.288208,433.885223 734.594238,459.340759 679.201599,494.646576
	C629.018860,526.631714 584.509155,565.208435 545.735779,610.478333
	C513.474487,648.144897 486.185211,689.033081 463.990479,733.316528
	C448.506958,764.209839 435.869415,796.258850 425.995483,829.408936
	C412.912903,873.331543 404.783752,918.159851 402.253815,963.868286
	C401.069214,985.270508 401.246277,1006.815979 402.109406,1028.244019
	C402.918457,1048.329102 404.557587,1068.471313 407.386749,1088.367188
	C415.672638,1146.637451 432.513580,1202.479248 457.517120,1255.780762
	C484.258820,1312.787476 519.176025,1364.343262 562.105347,1410.388184
	C594.264954,1444.881836 629.888062,1475.412231 669.265625,1501.423462
	C715.688293,1532.088257 765.373352,1556.012451 818.382812,1573.033447
	C867.979370,1588.958496 918.841064,1598.190552 970.782349,1600.692749
	C993.529053,1601.788696 1016.410645,1600.783569 1039.205811,1600.000366
	C1066.873657,1599.049805 1094.207764,1594.900757 1121.312988,1589.386353
	C1179.019409,1577.646362 1233.750732,1557.736816 1285.654419,1529.852051
	C1335.013672,1503.334473 1379.826904,1470.611084 1419.704590,1431.376221
	C1436.525879,1414.826050 1452.387329,1397.156250 1467.392456,1378.931030
	C1512.430542,1324.228271 1546.059448,1263.015747 1569.134888,1196.021606
	C1587.476318,1142.771362 1598.055054,1087.941895 1600.704224,1031.749878
	C1602.241211,999.149109 1601.664551,966.463501 1597.802002,933.963440
	C1592.854858,892.334778 1584.300171,851.486206 1570.555176,810.986633
z"
    />
<path
        fill="#CB6CE6"
        opacity="1.000000"
        stroke="none"
        d="
M1570.681396,811.361633
	C1584.300171,851.486206 1592.854858,892.334778 1597.802002,933.963440
	C1601.664551,966.463501 1602.241211,999.149109 1600.704224,1031.749878
	C1598.055054,1087.941895 1587.476318,1142.771362 1569.134888,1196.021606
	C1546.059448,1263.015747 1512.430542,1324.228271 1467.392456,1378.931030
	C1452.387329,1397.156250 1436.525879,1414.826050 1419.704590,1431.376221
	C1379.826904,1470.611084 1335.013672,1503.334473 1285.654419,1529.852051
	C1233.750732,1557.736816 1179.019409,1577.646362 1121.312988,1589.386353
	C1094.207764,1594.900757 1066.873657,1599.049805 1039.205811,1600.000366
	C1016.410645,1600.783569 993.529053,1601.788696 970.782349,1600.692749
	C918.841064,1598.190552 867.979370,1588.958496 818.382812,1573.033447
	C765.373352,1556.012451 715.688293,1532.088257 669.265625,1501.423462
	C629.888062,1475.412231 594.264954,1444.881836 562.105347,1410.388184
	C519.176025,1364.343262 484.258820,1312.787476 457.517120,1255.780762
	C432.513580,1202.479248 415.672638,1146.637451 407.386749,1088.367188
	C404.557587,1068.471313 402.918457,1048.329102 402.109406,1028.244019
	C401.246277,1006.815979 401.069214,985.270508 402.253815,963.868286
	C404.783752,918.159851 412.912903,873.331543 425.995483,829.408936
	C435.869415,796.258850 448.506958,764.209839 463.990479,733.316528
	C486.185211,689.033081 513.474487,648.144897 545.735779,610.478333
	C584.509155,565.208435 629.018860,526.631714 679.201599,494.646576
	C734.594238,459.340759 794.288208,433.885223 858.108704,418.189697
	C886.120728,411.300659 914.441833,405.934387 943.222595,404.048615
	C968.948303,402.363007 994.791565,400.780487 1020.532043,401.371002
	C1071.511475,402.540436 1121.551025,410.769867 1170.524292,425.258057
	C1231.091431,443.176208 1287.442627,469.920288 1339.653198,505.434265
	C1376.730835,530.654785 1410.445801,559.831787 1440.939209,592.646545
	C1481.230713,636.005615 1514.955078,684.077759 1540.388062,737.550354
	C1551.737915,761.413513 1560.576782,786.471130 1570.681396,811.361633
M906.965942,612.474548
	C879.120300,619.035461 852.361206,628.702087 826.697693,641.269287
	C768.846802,669.598389 720.426758,709.412354 681.549561,760.854736
	C649.263916,803.575256 626.522583,850.883606 613.454224,902.728516
	C603.677307,941.515503 598.760132,980.963867 602.067444,1020.994324
	C603.790100,1041.844727 605.979492,1062.772339 609.867676,1083.303589
	C617.585144,1124.054810 632.729248,1162.236694 653.136230,1198.344604
	C677.511475,1241.473999 708.974548,1278.704956 747.092834,1310.197998
	C776.926880,1334.846558 809.796326,1354.685425 845.512329,1369.770386
	C888.596863,1387.967529 933.500122,1398.468262 980.142883,1400.757812
	C1003.569275,1401.907715 1027.023071,1401.176147 1050.443115,1398.262207
	C1087.084351,1393.703491 1122.459717,1384.552124 1156.319214,1370.115845
	C1208.596924,1347.826660 1254.487549,1316.228760 1293.331421,1274.432373
	C1321.117798,1244.533813 1343.964600,1211.441895 1361.754272,1174.736084
	C1385.100952,1126.564209 1397.947754,1075.671021 1400.754150,1022.353882
	C1401.986938,998.929443 1401.172119,975.461975 1398.268188,952.055908
	C1392.757446,907.636902 1380.259155,865.350708 1360.492065,825.289246
	C1337.695190,779.087158 1307.235962,738.616638 1268.832031,704.081848
	C1245.160400,682.795105 1219.523315,664.376526 1191.527832,649.381287
	C1127.608887,615.144470 1059.465698,598.950806 986.797424,601.765320
	C960.061035,602.800903 933.744385,605.992920 906.965942,612.474548
z"
    />
<path
        fill="#E2A9F1"
        opacity="1.000000"
        stroke="none"
        d="
M907.367310,612.367554
	C933.744385,605.992920 960.061035,602.800903 986.797424,601.765320
	C1059.465698,598.950806 1127.608887,615.144470 1191.527832,649.381287
	C1219.523315,664.376526 1245.160400,682.795105 1268.832031,704.081848
	C1307.235962,738.616638 1337.695190,779.087158 1360.492065,825.289246
	C1380.259155,865.350708 1392.757446,907.636902 1398.268188,952.055908
	C1401.172119,975.461975 1401.986938,998.929443 1400.754150,1022.353882
	C1397.947754,1075.671021 1385.100952,1126.564209 1361.754272,1174.736084
	C1343.964600,1211.441895 1321.117798,1244.533813 1293.331421,1274.432373
	C1254.487549,1316.228760 1208.596924,1347.826660 1156.319214,1370.115845
	C1122.459717,1384.552124 1087.084351,1393.703491 1050.443115,1398.262207
	C1027.023071,1401.176147 1003.569275,1401.907715 980.142883,1400.757812
	C933.500122,1398.468262 888.596863,1387.967529 845.512329,1369.770386
	C809.796326,1354.685425 776.926880,1334.846558 747.092834,1310.197998
	C708.974548,1278.704956 677.511475,1241.473999 653.136230,1198.344604
	C632.729248,1162.236694 617.585144,1124.054810 609.867676,1083.303589
	C605.979492,1062.772339 603.790100,1041.844727 602.067444,1020.994324
	C598.760132,980.963867 603.677307,941.515503 613.454224,902.728516
	C626.522583,850.883606 649.263916,803.575256 681.549561,760.854736
	C720.426758,709.412354 768.846802,669.598389 826.697693,641.269287
	C852.361206,628.702087 879.120300,619.035461 907.367310,612.367554
z"
    />
</svg>
